# xmcd
#
# Track frame offsets: 
#        150
#        15689
#        35672
#        51730
#        67056
#        85470
#        101701
#        115589
#        129011
#        145153
#        164575
#        182590
#
# Disc length: 2685 seconds
#
# Revision: 0
# Processed by: cddbd v1.5.2PL0 Copyright (c) Steve Scherf et al.
# Submitted via: ExactAudioCopy v1.1
#
DISCID=aa0a7b0c
DTITLE=五木ひろし - 五木ひろし 芸能生活50周年記念大全集 シングルセレクション Disc 1 FKCX-5064-7
DYEAR=1900
DGENRE=Blues
TTITLE0=新宿駅から
TTITLE1=母と子の道
TTITLE2=俺を泣かせる夜の雨
TTITLE3=波止場のマリー
TTITLE4=雨のヨコハマ
TTITLE5=よこはま・たそがれ (ニューバージョン)
TTITLE6=待っている女 (ニューバージョン)
TTITLE7=夜空 (ニューバージョン)
TTITLE8=浜昼顔 (ニューバージョン)
TTITLE9=千曲川 (ニューバージョン)
TTITLE10=愛の始発 (ニューバージョン)
TTITLE11=灯りが欲しい (ニューバージョン)
EXTD=
EXTT0=
EXTT1=
EXTT2=
EXTT3=
EXTT4=
EXTT5=
EXTT6=
EXTT7=
EXTT8=
EXTT9=
EXTT10=
EXTT11=
PLAYORDER=
